<svg width="32" height="33" viewBox="0 0 32 33" fill="none" xmlns="http://www.w3.org/2000/svg">
<rect width="32" height="33" fill="#E5E5E5"/>
<g id="Composants Desktop">
<rect width="2299" height="3087.64" transform="translate(-1075 -1484)" fill="white"/>
<g id=".dropdown-open">
<g id="Status=Open, Size=Large">
<g clip-path="url(#clip0_0_1)">
<g id="Frame 2">
<path d="M-976 0.641839C-976 -4.88101 -971.523 -9.35815 -966 -9.35815H37C42.5228 -9.35815 47 -4.881 47 0.641846V257.642C47 260.403 44.7614 262.642 42 262.642H-971C-973.761 262.642 -976 260.403 -976 257.642V0.641839Z" fill="#F7F7F7"/>
</g>
<g id="Top bar">
<rect x="-976" y="-9.35815" width="1023" height="52" rx="5" fill="#FF6060"/>
<g id="arrow_back_ios-24px 2">
<path id="Vector" d="M17.2103 21.8522C16.5409 22.5216 15.4538 22.5216 14.7843 21.8522L4.50206 11.5699C3.83264 10.9005 3.83264 9.81335 4.50206 9.14393C5.17148 8.47452 6.25862 8.47452 6.92804 9.14393L16 18.2159L25.072 9.14929C25.7414 8.47987 26.8285 8.47987 27.4979 9.14929C28.1674 9.81871 28.1674 10.9058 27.4979 11.5753L17.2157 21.8575L17.2103 21.8522Z" fill="white"/>
</g>
</g>
</g>
</g>
<rect x="-995.5" y="-358.858" width="2140" height="939" rx="4.5" stroke="#9747FF" stroke-dasharray="10 5"/>
</g>
</g>
<defs>
<clipPath id="clip0_0_1">
<rect x="-976" y="-9.35815" width="1023" height="272" rx="5" fill="white"/>
</clipPath>
</defs>
</svg>
